<svg height="200" viewBox="0 0 200 200" width="200" xmlns="http://www.w3.org/2000/svg"><g fill="none" fill-rule="evenodd" transform="translate(10 8)"><g stroke="#000" stroke-width="1.25"><circle cx="176" cy="12" r="4"/><path d="m20.5.5 23 11m-29 84-3.79 10.377m16.327 25.523 5.898 2.203-3.46 5.947 6.072 2.392-3.933 5.758m128.733 35.37.693-9.316 10.292.052.416-9.222 9.274.332m-180.522-116.416s6.131 6.413 6.847 14.805c.715 8.393-2.52 14.806-2.52 14.806m119.728 11.889s-7.444 0-13.67 6.192c-6.227 6.192-4.838 12.012-4.838 12.012m2.24 68.626s-4.026-9.025-18.145-9.025-18.145 5.7-18.145 5.7" stroke-linecap="round"/><path d="m85.716 36.146 5.243-9.521h11.093l5.416 9.521-5.41 9.185h-11.105zm63.909 15.479h10.75v10.75h-10.75z"/></g><g fill="#000"><circle cx="71.5" cy="7.5" r="1.5"/><circle cx="170.5" cy="95.5" r="1.5"/><circle cx="81.5" cy="134.5" r="1.5"/><circle cx="13.5" cy="23.5" r="1.5"/><path d="m93 71h3v3h-3zm33 84h3v3h-3zm-85 18h3v3h-3z"/></g><g stroke="#000" stroke-width="1.25"><path d="m39.384 51.122 5.758-4.454 6.453 4.205-2.294 7.363h-7.79zm90.811-47.092 13.83 5.062-10.09 7.048zm-83 95 14.83 5.429-10.82 7.557-4.01-12.987zm-41.982 62.465 11.328 20.897-14.276-2.392z"/><path d="m149.05 127.468s-.51 2.183.995 3.366c1.56 1.226 8.642-1.895 3.967-7.785-2.367-2.477-6.5-3.226-9.33 0-5.208 5.936 0 17.51 11.61 13.73 12.458-6.257 5.633-21.656-5.073-22.654-6.602-.606-14.043 1.756-16.157 10.268-1.718 6.92 1.584 17.387 12.45 20.476 10.866 3.09 19.331-4.31 19.331-4.31" stroke-linecap="round"/></g></g></svg>